<svg width="1440" height="568" viewBox="0 0 1440 568" fill="none" xmlns="http://www.w3.org/2000/svg">
	<g clip-path="url(#clip0_6648_1093)">
	<path d="M524.726 433.1C524.726 380.443 1464.77 433.1 1503.99 433.1V23.4055C1464.76 23.4055 524.726 -29.2513 524.726 23.4055V433.105V433.1Z" fill="#E7651C"/>
	<mask id="mask0_6648_1093" style="mask-type:luminance" maskUnits="userSpaceOnUse" x="524" y="0" width="980" height="434">
	<path d="M524.726 433.1C524.726 380.443 1464.77 433.1 1503.99 433.1V23.4055C1464.76 23.4055 524.726 -29.2513 524.726 23.4055V433.105V433.1Z" fill="white"/>
	</mask>
	<g mask="url(#mask0_6648_1093)">
	<path d="M524.73 52.6887C524.73 0.0318617 1464.77 52.6887 1504 52.6887" stroke="#170B01" stroke-miterlimit="10"/>
	<path d="M524.73 84.2045C524.73 31.5477 1464.77 84.2045 1504 84.2045" stroke="#170B01" stroke-miterlimit="10"/>
	<path d="M524.73 115.72C524.73 63.0634 1464.77 115.72 1504 115.72" stroke="#170B01" stroke-miterlimit="10"/>
	<path d="M524.73 147.236C524.73 94.5792 1464.77 147.236 1504 147.236" stroke="#170B01" stroke-miterlimit="10"/>
	<path d="M524.73 178.752C524.73 126.095 1464.77 178.752 1504 178.752" stroke="#170B01" stroke-miterlimit="10"/>
	<path d="M524.73 210.268C524.73 157.611 1464.77 210.268 1504 210.268" stroke="#170B01" stroke-miterlimit="10"/>
	<path d="M524.73 241.783C524.73 189.127 1464.77 241.783 1504 241.783" stroke="#170B01" stroke-miterlimit="10"/>
	<path d="M524.73 273.294C524.73 220.637 1464.77 273.294 1504 273.294" stroke="#170B01" stroke-miterlimit="10"/>
	<path d="M524.73 304.81C524.73 252.153 1464.77 304.81 1504 304.81" stroke="#170B01" stroke-miterlimit="10"/>
	<path d="M524.73 336.325C524.73 283.669 1464.77 336.325 1504 336.325" stroke="#170B01" stroke-miterlimit="10"/>
	<path d="M524.73 367.842C524.73 315.185 1464.77 367.842 1504 367.842" stroke="#170B01" stroke-miterlimit="10"/>
	<path d="M524.73 399.357C524.73 346.7 1464.77 399.357 1504 399.357" stroke="#170B01" stroke-miterlimit="10"/>
	</g>
	<path d="M1330.6 731.91C1332.87 600.059 524.726 478.027 524.726 433.105V23.4053C524.726 68.3273 1332.87 190.364 1330.6 322.21V731.91V731.91Z" fill="#E7651C"/>
	<mask id="mask1_6648_1093" style="mask-type:luminance" maskUnits="userSpaceOnUse" x="524" y="23" width="807" height="709">
	<path d="M1330.6 731.91C1332.87 600.059 524.726 478.027 524.726 433.105V23.4053C524.726 68.3273 1332.87 190.364 1330.6 322.21V731.91V731.91Z" fill="white"/>
	</mask>
	<g mask="url(#mask1_6648_1093)">
	<path d="M1330.61 351.493C1332.88 219.642 524.73 97.6105 524.73 52.6885" stroke="#170B01" stroke-miterlimit="10"/>
	<path d="M1330.61 383.009C1332.88 251.158 524.73 129.126 524.73 84.2043" stroke="#170B01" stroke-miterlimit="10"/>
	<path d="M1330.61 414.525C1332.88 282.674 524.73 160.642 524.73 115.72" stroke="#170B01" stroke-miterlimit="10"/>
	<path d="M1330.61 446.041C1332.88 314.19 524.73 192.158 524.73 147.236" stroke="#170B01" stroke-miterlimit="10"/>
	<path d="M1330.61 477.556C1332.88 345.705 524.73 223.674 524.73 178.752" stroke="#170B01" stroke-miterlimit="10"/>
	<path d="M1330.61 509.072C1332.88 377.221 524.73 255.189 524.73 210.267" stroke="#170B01" stroke-miterlimit="10"/>
	<path d="M1330.61 540.588C1332.88 408.737 524.73 286.705 524.73 241.783" stroke="#170B01" stroke-miterlimit="10"/>
	<path d="M1330.61 572.104C1332.88 440.253 524.73 318.221 524.73 273.299" stroke="#170B01" stroke-miterlimit="10"/>
	<path d="M1330.61 603.619C1332.88 471.768 524.73 349.737 524.73 304.815" stroke="#170B01" stroke-miterlimit="10"/>
	<path d="M1330.61 635.13C1332.88 503.279 524.73 381.247 524.73 336.325" stroke="#170B01" stroke-miterlimit="10"/>
	<path d="M1330.61 666.646C1332.88 534.795 524.73 412.763 524.73 367.841" stroke="#170B01" stroke-miterlimit="10"/>
	<path d="M1330.61 698.162C1332.88 566.311 524.73 444.279 524.73 399.357" stroke="#170B01" stroke-miterlimit="10"/>
	</g>
	<path d="M1330.61 731.91C1328.12 876.231 66.2257 723.059 0.100586 696.754V287.054C66.2257 313.354 1328.12 466.526 1330.61 322.21V731.91Z" fill="#E7651C"/>
	<mask id="mask2_6648_1093" style="mask-type:luminance" maskUnits="userSpaceOnUse" x="0" y="287" width="1331" height="507">
	<path d="M1330.61 731.91C1328.12 876.231 66.2257 723.059 0.100586 696.754V287.054C66.2257 313.354 1328.12 466.526 1330.61 322.21V731.91Z" fill="white"/>
	</mask>
	<g mask="url(#mask2_6648_1093)">
	<path d="M0.0957031 316.343C66.2208 342.642 1328.12 495.814 1330.6 351.499" stroke="#170B01" stroke-miterlimit="10"/>
	<path d="M0.0957031 347.859C66.2208 374.158 1328.12 527.33 1330.6 383.015" stroke="#170B01" stroke-miterlimit="10"/>
	<path d="M0.0957031 379.369C66.2208 405.669 1328.12 558.841 1330.6 414.525" stroke="#170B01" stroke-miterlimit="10"/>
	<path d="M0.0957031 410.885C66.2208 437.184 1328.12 590.356 1330.6 446.041" stroke="#170B01" stroke-miterlimit="10"/>
	<path d="M0.0957031 442.401C66.2208 468.7 1328.12 621.872 1330.6 477.557" stroke="#170B01" stroke-miterlimit="10"/>
	<path d="M0.0957031 473.917C66.2208 500.216 1328.12 653.388 1330.6 509.072" stroke="#170B01" stroke-miterlimit="10"/>
	<path d="M0.0957031 505.432C66.2208 531.732 1328.12 684.904 1330.6 540.588" stroke="#170B01" stroke-miterlimit="10"/>
	<path d="M0.0957031 536.948C66.2208 563.248 1328.12 716.419 1330.6 572.104" stroke="#170B01" stroke-miterlimit="10"/>
	<path d="M0.0957031 568.464C66.2208 594.763 1328.12 747.935 1330.6 603.62" stroke="#170B01" stroke-miterlimit="10"/>
	</g>
	</g>
	<defs>
	<clipPath id="clip0_6648_1093">
	<rect width="1440" height="568" fill="white"/>
	</clipPath>
	</defs>
	</svg>
